<?xml version="1.0" encoding="UTF-8"?>
<svg width="71px" height="37px" viewBox="0 0 71 37" version="1.1" xmlns="http://www.w3.org/2000/svg" xmlns:xlink="http://www.w3.org/1999/xlink">
    <!-- Generator: Sketch 47.1 (45422) - http://www.bohemiancoding.com/sketch -->
    <title>compare-Icon</title>
    <desc>Created with Sketch.</desc>
    <defs></defs>
    <g id="Page-1" stroke="none" stroke-width="1" fill="none" fill-rule="evenodd">
        <g id="File-Uploader" transform="translate(-477.000000, -299.000000)" fill="#2D5578">
            <g id="compare-Icon" transform="translate(477.000000, 299.000000)">
                <path d="M38.1411971,24.7803342 C38.1264594,24.7261372 38.124354,24.6719401 38.1033002,24.619911 C38.0927734,24.5960643 38.073825,24.5765533 38.0632981,24.5505387 C38.0317174,24.4833344 37.9896098,24.4204658 37.9496076,24.3575973 C37.9032893,24.2860572 37.8590764,24.2145171 37.8022312,24.1494806 C37.7910025,24.1393638 34.6631121,20.915001 28.4185601,14.476392 C27.8016843,13.8412027 26.803735,13.8412027 26.1868592,14.476392 C25.5699833,15.1115814 25.5699833,16.1391574 26.1868592,16.7743467 L32.831433,23.6161817 L1.57903371,23.6161817 C0.707407104,23.6161817 0,24.34459 0,25.242093 C0,26.1395961 0.707407104,26.8680044 1.57903371,26.8680044 L32.831433,26.8680044 L26.1868592,33.7141751 C25.5699833,34.3493645 25.5699833,35.3769404 26.1868592,36.0121298 C26.4942444,36.3308084 26.898477,36.4890638 27.3027096,36.4890638 C27.7090477,36.4890638 28.1111749,36.3308084 28.4185601,36.0121298 L37.7601236,26.3932383 C37.8590764,26.2718369 37.9032893,26.2002968 37.9496076,26.1287567 C37.9896098,26.0637202 38.0317174,26.0030195 38.0632981,25.9358152 C38.073825,25.9098006 38.0927734,25.8902897 38.1033002,25.866443 C38.124354,25.8144138 38.1264594,25.7602168 38.1411971,25.7060197 C38.1622508,25.6301439 38.18541,25.5564359 38.1959369,25.4783922 C38.2085692,25.4003484 38.2085692,25.3223047 38.2085692,25.242093 C38.2085692,25.1640493 38.2085692,25.0860055 38.1959369,25.0079618 C38.18541,24.9299181 38.1622508,24.8562101 38.1411971,24.7803342 Z" id="Fill-4"></path>
                <path d="M70.1411971,10.7803342 C70.1264594,10.7261372 70.124354,10.6719401 70.1033002,10.619911 C70.0927734,10.5960643 70.073825,10.5765533 70.0632981,10.5505387 C70.0317174,10.4833344 69.9896098,10.4204658 69.9496076,10.3575973 C69.9032893,10.2860572 69.8590764,10.2145171 69.8022312,10.1494806 C69.7910025,10.1393638 66.6631121,6.91500097 60.4185601,0.476392025 C59.8016843,-0.158797342 58.803735,-0.158797342 58.1868592,0.476392025 C57.5699833,1.11158139 57.5699833,2.13915736 58.1868592,2.77434673 L64.831433,9.61618169 L33.5790337,9.61618169 C32.7074071,9.61618169 32,10.34459 32,11.242093 C32,12.1395961 32.7074071,12.8680044 33.5790337,12.8680044 L64.831433,12.8680044 L58.1868592,19.7141751 C57.5699833,20.3493645 57.5699833,21.3769404 58.1868592,22.0121298 C58.4942444,22.3308084 58.898477,22.4890638 59.3027096,22.4890638 C59.7090477,22.4890638 60.1111749,22.3308084 60.4185601,22.0121298 L69.7601236,12.3932383 C69.8590764,12.2718369 69.9032893,12.2002968 69.9496076,12.1287567 C69.9896098,12.0637202 70.0317174,12.0030195 70.0632981,11.9358152 C70.073825,11.9098006 70.0927734,11.8902897 70.1033002,11.866443 C70.124354,11.8144138 70.1264594,11.7602168 70.1411971,11.7060197 C70.1622508,11.6301439 70.18541,11.5564359 70.1959369,11.4783922 C70.2085692,11.4003484 70.2085692,11.3223047 70.2085692,11.242093 C70.2085692,11.1640493 70.2085692,11.0860055 70.1959369,11.0079618 C70.18541,10.9299181 70.1622508,10.8562101 70.1411971,10.7803342 Z" id="Fill-4-Copy" transform="translate(51.104285, 11.244532) rotate(-180.000000) translate(-51.104285, -11.244532) "></path>
            </g>
        </g>
    </g>
</svg>