<?xml version="1.0" encoding="UTF-8"?>
<svg width="52px" height="23px" viewBox="0 0 52 23" version="1.1" xmlns="http://www.w3.org/2000/svg" xmlns:xlink="http://www.w3.org/1999/xlink">
    <!-- Generator: Sketch 47.1 (45422) - http://www.bohemiancoding.com/sketch -->
    <title>Combined Shape</title>
    <desc>Created with Sketch.</desc>
    <defs></defs>
    <g id="Page-1" stroke="none" stroke-width="1" fill="none" fill-rule="evenodd">
        <g id="File-Uploader" transform="translate(-486.000000, -303.000000)" fill="#2D5578">
            <path d="M522.752664,315.868004 L531.831433,315.868004 L525.186859,322.714175 C524.569983,323.349364 524.569983,324.37694 525.186859,325.01213 C525.494244,325.330808 525.898477,325.489064 526.30271,325.489064 C526.709048,325.489064 527.111175,325.330808 527.41856,325.01213 L536.760124,315.393238 C536.859076,315.271837 536.903289,315.200297 536.949608,315.128757 C536.98961,315.06372 537.031717,315.00302 537.063298,314.935815 C537.073825,314.909801 537.092773,314.89029 537.1033,314.866443 C537.124354,314.814414 537.126459,314.760217 537.141197,314.70602 C537.162251,314.630144 537.18541,314.556436 537.195937,314.478392 C537.208569,314.400348 537.208569,314.322305 537.208569,314.242093 C537.208569,314.164049 537.208569,314.086006 537.195937,314.007962 C537.18541,313.929918 537.162251,313.85621 537.141197,313.780334 C537.126459,313.726137 537.124354,313.67194 537.1033,313.619911 C537.092773,313.596064 537.073825,313.576553 537.063298,313.550539 C537.031717,313.483334 536.98961,313.420466 536.949608,313.357597 C536.903289,313.286057 536.859076,313.214517 536.802231,313.149481 C536.791002,313.139364 533.663112,309.915001 527.41856,303.476392 C526.801684,302.841203 525.803735,302.841203 525.186859,303.476392 C524.569983,304.111581 524.569983,305.139157 525.186859,305.774347 L531.831433,312.616182 L500.579034,312.616182 C500.5376,312.616182 500.496538,312.617828 500.455905,312.621059 L491.377136,312.621059 L498.02171,305.774889 C498.638586,305.139699 498.638586,304.112123 498.02171,303.476934 C497.714325,303.158255 497.310092,303 496.90586,303 C496.499522,303 496.097394,303.158255 495.790009,303.476934 L486.448446,313.095826 C486.349493,313.217227 486.30528,313.288767 486.258962,313.360307 C486.218959,313.425344 486.176852,313.486044 486.145271,313.553249 C486.134744,313.579263 486.115796,313.598774 486.105269,313.622621 C486.084215,313.67465 486.08211,313.728847 486.067372,313.783044 C486.046318,313.85892 486.023159,313.932628 486.012632,314.010672 C486,314.088715 486,314.166759 486,314.246971 C486,314.325015 486,314.403058 486.012632,314.481102 C486.023159,314.559146 486.046318,314.632854 486.067372,314.70873 C486.08211,314.762927 486.084215,314.817124 486.105269,314.869153 C486.115796,314.893 486.134744,314.91251 486.145271,314.938525 C486.176852,315.005729 486.218959,315.068598 486.258962,315.131467 C486.30528,315.203007 486.349493,315.274547 486.406338,315.339583 C486.417567,315.3497 489.545457,318.574063 495.790009,325.012672 C496.406885,325.647861 497.404834,325.647861 498.02171,325.012672 C498.638586,324.377482 498.638586,323.349906 498.02171,322.714717 L491.377136,315.872882 L522.629535,315.872882 C522.670969,315.872882 522.712031,315.871236 522.752664,315.868004 Z" id="Combined-Shape"></path>
        </g>
    </g>
</svg>